# xmcd CD database file
#
# Track frame offsets:
#	150
#	16117
#	39632
#	56257
#	73340
#	94282
#	109932
#	122470
#	140282
#	152497
#	174555
#
# Disc length: 2531 seconds
#
# Revision: 0
# Processed by: cddbd v1.4PL0 Copyright (c) Steve Scherf et al.
# Submitted via: CDex 1.50beta10
#
DISCID=8c09e10b
DTITLE=Connie Smith/Sharon White/Barbara Fairchild - Love Never Fails
DYEAR=2003
DGENRE=Country
TTITLE0=Secret Place
TTITLE1=Where Angels Fear To Tread
TTITLE2=Closer To Home
TTITLE3=Fight On
TTITLE4=Ever Near
TTITLE5=Reach For The Scars
TTITLE6=Trouble Me No More
TTITLE7=In Gethsemene
TTITLE8=He's Alive
TTITLE9=Love Never Fails
TTITLE10=Walkin' Through The Fire
EXTD=YEAR: 2003
EXTT0=
EXTT1=
EXTT2=
EXTT3=
EXTT4=
EXTT5=
EXTT6=
EXTT7=
EXTT8=
EXTT9=
EXTT10=
PLAYORDER=
